<?xml version="1.0" encoding="iso-8859-1"?>
<!-- Generator: Adobe Illustrator 16.0.0, SVG Export Plug-In . SVG Version: 6.00 Build 0)  -->
<!DOCTYPE svg PUBLIC "-//W3C//DTD SVG 1.1//EN" "http://www.w3.org/Graphics/SVG/1.1/DTD/svg11.dtd">
<svg xmlns="http://www.w3.org/2000/svg" xmlns:xlink="http://www.w3.org/1999/xlink" version="1.1" id="Capa_1" x="0px" y="0px" width="512px" height="512px" viewBox="0 0 734.123 734.123" style="enable-background:new 0 0 734.123 734.123;" xml:space="preserve">
<g>
	<g>
		<path d="M647.62,313.633h-92.054V193.365c0-55.975-17.576-102.229-53.202-138.772C466.749,18.04,421.877,0,367.294,0    c-55.047,0-100.384,18.04-136,54.593c-35.616,36.543-53.655,82.797-53.655,138.772v29.142c0,14.339,12.03,25.441,25.441,25.441    c14.339,0,25.905-11.102,25.905-25.441v-29.142c0-41.636,12.947-75.87,38.398-102.229c25.905-26.843,59.211-40.244,99.92-40.244    c40.244,0,72.968,13.52,98.527,40.244c25.323,26.477,38.398,60.593,38.398,102.229v120.268H86.503    c-14.339,0-25.441,11.103-25.441,25.441v369.609c0,14.338,11.102,25.439,25.441,25.439H647.62    c13.412,0,25.441-11.102,25.441-25.439V339.075C673.062,324.736,661.032,313.633,647.62,313.633z M621.715,682.777H112.408    V364.516h509.307V682.777z" fill="#757575"/>
		<path d="M341.388,524.574v106.393c0,14.34,11.566,26.369,25.906,26.369c14.339,0,25.44-12.029,25.44-26.369V524.574    c21.741-9.711,37.008-29.605,37.008-51.811c0-15.266-6.691-28.432-19.432-39.779c-12.711-11.33-26.833-17.123-43.017-17.123    c-16.649,0-31.343,5.686-44.409,17.123c-12.839,11.23-19.431,24.514-19.431,39.779    C303.454,494.504,319.648,514.863,341.388,524.574z" fill="#757575"/>
	</g>
</g>
<g>
</g>
<g>
</g>
<g>
</g>
<g>
</g>
<g>
</g>
<g>
</g>
<g>
</g>
<g>
</g>
<g>
</g>
<g>
</g>
<g>
</g>
<g>
</g>
<g>
</g>
<g>
</g>
<g>
</g>
</svg>
