<?xml version="1.0" encoding="iso-8859-1"?>
<!-- Generator: Adobe Illustrator 16.0.0, SVG Export Plug-In . SVG Version: 6.00 Build 0)  -->
<!DOCTYPE svg PUBLIC "-//W3C//DTD SVG 1.1//EN" "http://www.w3.org/Graphics/SVG/1.1/DTD/svg11.dtd">
<svg xmlns="http://www.w3.org/2000/svg" xmlns:xlink="http://www.w3.org/1999/xlink" version="1.1" id="Capa_1" x="0px" y="0px" width="512px" height="512px" viewBox="0 0 919.8 919.8" style="enable-background:new 0 0 919.8 919.8;" xml:space="preserve">
<g>
	<path d="M684.833,209.4l27-33.8c37-46.2,29.5-113.7-16.801-150.7l-1.699-1.4c-46.2-37-113.7-29.5-150.7,16.8l-26.9,33.7   L684.833,209.4z" fill="#757575"/>
	<path d="M520.532,493.5c0.9,8.199,5,16,11.9,21.6c13.9,11.1,34.2,8.9,45.3-5l185.5-232c11.3-14.1,8.8-34.8-5.7-45.8   c-14-10.6-34.1-7.6-45.1,6.1l-18.1,22.6l-31-24.8l0.1-0.1l-169-135.5l-432.4,540.5l169.1,135.4l392.1-490l31,24.8l-126.8,158.5   C521.833,476.699,519.633,485.3,520.532,493.5z" fill="#757575"/>
	<path d="M203.032,801.5l-159.3-127.601c-2.6,8.9-3.9,16.7-3.9,16.7l-36.5,174.8c-2.6,12.601,10.2,22.9,21.9,17.5l162.6-74   C187.732,808.899,194.932,805.899,203.032,801.5z" fill="#757575"/>
	<path d="M893.633,832.8c-1.4,0-2.7,0.1-4.101,0.3l-245.699,31.8c-12.601,1.601-21.4-12.2-14.601-23c3.7-5.7,7.3-11.5,10.9-17.3   c9.5-15.4-3.2-35.9-20.8-35.9c-1.2,0-2.4,0.101-3.7,0.301l-322,48.399l-38.5,5.8l-105,15.801c-11.9,1.8-19.9,11.899-18.9,24   c0.4,5.399,2.6,10.5,6.1,14.3c4.1,4.5,9.8,7,16,7c1.2,0,2.4-0.101,3.7-0.3l383.801-57.7c13.1-2,22.1,12.8,14.399,23.6   c-2.5,3.4-5,6.9-7.5,10.3c-6.899,9.4-5.3,25.101,2.7,33.2c4.1,4.2,9.3,6.4,14.8,6.4c0.601,0,1.3,0,1.9-0.101h0.1h0.101   l331.3-42.199h0.1h0.101c5.699-0.9,10.699-4.2,14-9.301c3.6-5.6,4.899-12.5,3.3-18.699   C913.532,839.399,904.732,832.8,893.633,832.8z" fill="#757575"/>
</g>
<g>
</g>
<g>
</g>
<g>
</g>
<g>
</g>
<g>
</g>
<g>
</g>
<g>
</g>
<g>
</g>
<g>
</g>
<g>
</g>
<g>
</g>
<g>
</g>
<g>
</g>
<g>
</g>
<g>
</g>
</svg>
